<svg width="128" height="128" viewBox="0 0 128 128" fill="none" xmlns="http://www.w3.org/2000/svg">
<path d="M64 123.2C96.8057 123.2 123.4 109.321 123.4 92.2C123.4 75.0792 96.8057 61.2 64 61.2C31.1943 61.2 4.59998 75.0792 4.59998 92.2C4.59998 109.321 31.1943 123.2 64 123.2Z" fill="url(#paint0_radial)"/>
<g opacity="0.49">
<path opacity="0.49" d="M99.5 89.1C99.5 99 83.1999 108 63.0999 108C42.9999 108 26.7 98.9 26.7 89.1C26.7 79.3 42.9999 71.2 63.0999 71.2C83.1999 71.2 99.5 79.2 99.5 89.1Z" fill="url(#paint1_linear)"/>
</g>
<g opacity="0.2">
<path opacity="0.2" d="M64 64.2C79.4 64.2 93.8 67.3 104.6 72.9C114.8 78.2 120.4 85.1 120.4 92.2C120.4 99.3 114.8 106.1 104.6 111.5C93.8 117.1 79.4 120.2 64 120.2C48.6 120.2 34.2 117.1 23.4 111.5C13.2 106.2 7.59998 99.4 7.59998 92.2C7.59998 85 13.2 78.3 23.4 73C34.2 67.3 48.6 64.2 64 64.2ZM64 61.2C31.2 61.2 4.59998 75.1 4.59998 92.2C4.59998 109.3 31.2 123.2 64 123.2C96.8 123.2 123.4 109.3 123.4 92.2C123.4 75.1 96.8 61.2 64 61.2Z" fill="#424242"/>
</g>
<path d="M113.9 56.2C110.4 55.4 104.8 55.7 100.7 57.4C100.8 52.8 100.5 49.7 100.5 49.7H62.5H24.7C24.7 49.7 19.2 100.5 62.5 100.5C77.3 100.5 86.4 94.7 92 87C113.4 83.2 119.6 73.8 121.1 67.5C122.6 60.8 118.1 57.1 113.9 56.2ZM114.4 68.2C113.8 69.3 108.7 76.4 98.5 77.2C98.5 77.2 102.1 61.7 109.7 61.5C117.3 61.5 115 67.2 114.4 68.2Z" fill="url(#paint2_radial)"/>
<path d="M100.7 51.7C100.7 61.4 83.6 69.3 62.5 69.3C41.4 69.3 24.5 61.4 24.5 51.7C24.5 42 41.4 34.2 62.5 34.2C83.6 34.2 100.7 42 100.7 51.7Z" fill="url(#paint3_linear)"/>
<g opacity="0.2">
<path opacity="0.2" d="M62.5 37.6C83.1 37.6 95.9 44.1 97.6 50.3C97.7 50.8 97.8 51.4 97.8 51.6C97.8 51.9 97.7 55 97.7 56.9C97.7 57.9 98.1 58.9 99 59.4C99.5 59.8 100.1 59.9 100.7 59.9C101.1 59.9 101.4 59.8 101.8 59.7C104 58.8 107 58.3 109.8 58.3C111.1 58.3 112.3 58.4 113.3 58.6C115.1 59 116.7 60.1 117.6 61.4C118.4 62.7 118.6 64.3 118.2 66.2C117.1 71.1 112.2 79.9 91.6 83.6C90.7 84 90 84.4 89.6 85C83.7 93.2 74.6 97.4 62.5 97.4C52.2 97.4 44 94.4 38.2 88.3C27.8 77.6 27.3 60.1 27.5 53V52.8C27.5 51.4 27.6 50.4 27.6 50.1C29.6 43 44.5 37.6 62.5 37.6ZM62.5 34.6C43 34.6 26.9 40.5 24.7 49.6C24.7 49.6 24.5 50.8 24.5 52.9C24.1 63.7 25.4 100.4 62.5 100.4C77.3 100.4 86.4 94.5 92 86.7C113.3 82.9 119.6 73.4 121 67C122.5 60.5 118 56.7 113.8 55.8C112.6 55.5 111.2 55.4 109.6 55.4C106.6 55.4 103.3 55.9 100.5 57C100.6 55.1 100.6 51.9 100.6 51.6C100.6 50.9 100.4 49.6 100.4 49.6C98.3 40.7 82 34.6 62.5 34.6Z" fill="#424242"/>
</g>
<path d="M95.2 59.8C88.8 64.8 76.5 68 62.6 68C48.8 68 36.5 64.9 29.9 59.9C31 52 45.2 45.8 62.6 45.8C79.8 45.8 94 52 95.2 59.8Z" fill="url(#paint4_linear)"/>
<path d="M64.1 117.2C42.9 117.2 22.6 113.5 14 104.8C21.8 113.8 41.3 120.2 64.1 120.2C86.9 120.2 106.5 113.8 114.2 104.8C102.7 113.2 85.3 117.2 64.1 117.2Z" fill="white"/>
<path opacity="0.58" d="M52.9 44.4C51.9 47.8 55.1 51.6 57.1 53.4C57.3 53.6 57.1 54 56.9 53.9C54.5 53.3 50.1 52.1 48.6 47.3C47.7 44.4 49 41.3 51.7 36.8C53.2 34.1 54 31.6 54.2 28.7C54.4 25.6 53.7 23.3 52.4 21.8C52.2 21.6 52.4 21.2 52.7 21.3C55 22.5 57.6 24.8 58.2 28.5C58.8 34.9 54.7 38.3 52.9 44.4Z" fill="#D7CCC8"/>
<path d="M64 4C30.86 4 4 30.86 4 64C4 97.14 30.86 124 64 124C97.14 124 124 97.14 124 64C124 30.86 97.14 4 64 4ZM112 64C112 75.08 108.22 85.28 101.89 93.41L34.59 26.11C42.72 19.78 52.92 16 64 16C90.47 16 112 37.53 112 64ZM16 64C16 52.92 19.78 42.72 26.11 34.59L93.41 101.89C85.28 108.22 75.08 112 64 112C37.53 112 16 90.47 16 64Z" fill="url(#paint5_linear)"/>
<g opacity="0.2">
<path opacity="0.2" d="M64 7C95.43 7 121 32.57 121 64C121 95.43 95.43 121 64 121C32.57 121 7 95.43 7 64C7 32.57 32.57 7 64 7ZM101.89 96.41C101.95 96.41 102.01 96.41 102.08 96.4C102.94 96.35 103.73 95.93 104.26 95.25C111.29 86.22 115 75.41 115 64C115 35.88 92.12 13 64 13C52.59 13 41.78 16.71 32.75 23.74C32.07 24.27 31.65 25.06 31.6 25.92C31.55 26.78 31.86 27.62 32.47 28.23L99.77 95.53C100.34 96.1 101.1 96.41 101.89 96.41V96.41ZM64 115C75.41 115 86.22 111.29 95.25 104.26C95.93 103.73 96.35 102.94 96.4 102.08C96.45 101.22 96.14 100.38 95.53 99.77L28.23 32.47C27.67 31.91 26.9 31.59 26.11 31.59C26.05 31.59 25.99 31.59 25.92 31.6C25.06 31.65 24.27 32.07 23.74 32.75C16.71 41.78 13 52.59 13 64C13 92.12 35.88 115 64 115ZM64 4C30.86 4 4 30.86 4 64C4 97.14 30.86 124 64 124C97.14 124 124 97.14 124 64C124 30.86 97.14 4 64 4ZM101.89 93.41L34.59 26.11C42.72 19.78 52.92 16 64 16C90.47 16 112 37.53 112 64C112 75.08 108.22 85.28 101.89 93.41ZM64 112C37.53 112 16 90.47 16 64C16 52.92 19.78 42.72 26.11 34.59L93.41 101.89C85.28 108.22 75.08 112 64 112Z" fill="#424242"/>
</g>
<path opacity="0.58" d="M66.1 43.1C63.7 48.2 67.8 54.9 70.4 58.2C70.7 58.6 70.3 59.1 69.9 58.9C66.2 57.4 59.8 54.5 58.6 46.6C57.9 41.9 60.8 37.3 66 30.9C69.1 27.1 70.9 23.3 71.9 18.8C73 14.1 72.4 10.3 70.8 7.60002C70.5 7.20002 71 6.70002 71.4 7.00002C74.6 9.50002 78.1 13.7 78.2 19.6V19.7C77.7 29.7 70.5 33.9 66.1 43.1Z" fill="#D7CCC8"/>
<defs>
<radialGradient id="paint0_radial" cx="0" cy="0" r="1" gradientUnits="userSpaceOnUse" gradientTransform="translate(64 92.2) scale(58.5469 30.9238)">
<stop stop-color="white"/>
<stop offset="1" stop-color="#E3E3E3"/>
</radialGradient>
<linearGradient id="paint1_linear" x1="63.1" y1="76.6039" x2="63.1" y2="106.51" gradientUnits="userSpaceOnUse">
<stop stop-color="white"/>
<stop offset="0.2122" stop-color="#E2E2E2"/>
<stop offset="0.5595" stop-color="#B8B8B8"/>
<stop offset="0.8323" stop-color="#9E9E9E"/>
<stop offset="0.9947" stop-color="#949494"/>
</linearGradient>
<radialGradient id="paint2_radial" cx="0" cy="0" r="1" gradientUnits="userSpaceOnUse" gradientTransform="translate(62.548 66.1371) scale(42.384 41.5999)">
<stop offset="0.00509" stop-color="white"/>
<stop offset="0.2759" stop-color="#FBFBFB"/>
<stop offset="0.5646" stop-color="#EEEEEE"/>
<stop offset="0.8606" stop-color="#D9D9D9"/>
<stop offset="0.9998" stop-color="#CCCCCC"/>
</radialGradient>
<linearGradient id="paint3_linear" x1="62.6" y1="28.365" x2="62.6" y2="53.127" gradientUnits="userSpaceOnUse">
<stop offset="0.00509" stop-color="white"/>
<stop offset="0.2759" stop-color="#FBFBFB"/>
<stop offset="0.5646" stop-color="#EEEEEE"/>
<stop offset="0.8606" stop-color="#D9D9D9"/>
<stop offset="0.9998" stop-color="#CCCCCC"/>
</linearGradient>
<linearGradient id="paint4_linear" x1="62.55" y1="67.3812" x2="62.55" y2="46.6632" gradientUnits="userSpaceOnUse">
<stop offset="0.00510002" stop-color="#16110E"/>
<stop offset="0.1824" stop-color="#211611"/>
<stop offset="0.4957" stop-color="#3F241A"/>
<stop offset="0.9058" stop-color="#6F3A28"/>
<stop offset="0.9998" stop-color="#7B402B"/>
</linearGradient>
<linearGradient id="paint5_linear" x1="64" y1="5" x2="64" y2="123.39" gradientUnits="userSpaceOnUse">
<stop stop-color="#FF5252"/>
<stop offset="0.324" stop-color="#F33B3B"/>
<stop offset="1" stop-color="#D50000"/>
</linearGradient>
</defs>
</svg>
